# xmcd
#
# Track frame offsets:
#	150
#	30180
#	65080
#	100194
#	162251
#	211499
#	241249
#
# Disc length: 3618 seconds
#
# Revision: 1
# Processed by: cddbd v1.5.2PL0 Copyright (c) Steve Scherf et al.
# Submitted via: audiograbber 1.83.01
#
DISCID=550e2007
DTITLE=Grateful Dead - 82-09-21 Madison Square Garden, New York NY
DYEAR=1900
DGENRE=
TTITLE0=Touch Of Grey
TTITLE1=Samson and Delilah
TTITLE2=High Time
TTITLE3=Estimated Prophet
TTITLE4=He's Gone
TTITLE5=Drums
TTITLE6=Space
EXTD=
EXTT0=
EXTT1=
EXTT2=
EXTT3=
EXTT4=
EXTT5=
EXTT6=
PLAYORDER=
